<svg xmlns="http://www.w3.org/2000/svg" width="1053.8977pt" height="324.07263pt" viewBox="0 0 1053.8977 324.07263"><g fill="#fff"><path d="M423.11.378c6.4-.38 12.91-.81 19.23.55 6.48 1.35 13.1 1.68 19.7 2.13 12.87 1.5 25.72 3.25 38.47 5.6 12.59.86 25.02 3 37.51 4.69 10.23 2.03 20.7 2.09 31.03 3.17 5.76.55 11.1 3.63 16.96 3.26 8.33-1.29 17.47-3.83 25.43.26 5.05 3.01 10.46 6.85 12.05 12.86 1.9 6.16-.26 12.47-1.27 18.58-.91 5.06-3.01 10.84-8.18 12.89-4.86 2.07-9.69 4.44-14.95 5.3-11.64 2.13-23.4-.5-35-1.63-7.16-.2-14.34-.36-21.49.11.9 9.08.41 18.24 1.47 27.31.56 5.02.3 10.07-.12 15.09 6 2.26 11.02 6.6 17.26 8.28 7.09 2.01 13.45 6.28 20.93 6.96 10.42 2.05 20.62-3.72 30.98-1.72 7.12 1.07 10.17 9.01 9.92 15.41-.32 5.97-.02 12.84-4.29 17.59-3.39 3.97-7.1 7.72-11.33 10.79-4.38 3.13-9.86 3.83-14.91 5.24-5.74 1.4-11.36 3.71-17.34 3.82-7.09.01-12.78-4.99-19.61-6.11-5.6-.91-11.29-1.35-16.76-2.94-5.84-1.5-11.01-4.7-16.34-7.4-6.38 10.41-14.44 19.63-23.27 28.02-5.33 6.15-11.88 11-18.5 15.66-5.81 3.97-10.65 9.72-17.65 11.65-5.16 1.52-10.45 3.08-15.89 2.8-5.72-.35-11.27-1.96-16.96-2.53-5.22-.54-10.65-.83-15.39-3.32-3.79-1.94-8-4.19-9.83-8.25-1.16-2.54.34-5.14 2.11-6.93 2.78-2.89 5.52-5.82 8.43-8.58 3.64-3.48 8.4-5.49 11.98-9.03 2.88-2.82 5.26-6.12 8.25-8.83 3.16-2.93 6.95-5.05 10.31-7.73 3.15-2.57 5.04-6.25 7.57-9.36 2.83-3.52 6.69-5.97 9.83-9.17 4.74-4.67 7.67-10.85 12.64-15.32 2.97-2.68 5.75-5.56 8.25-8.69-.22-7.81 1.4-15.51 1.27-23.31-.1-8.36.61-16.77-.51-25.09-.53-4.19-.63-8.42-.67-12.64-8.56-1.04-16.76-4.05-25.38-4.61-9.2-1.18-18.17-3.73-26.94-6.68-9.04-2.46-18.2-5.59-25.66-11.43-3.71-3.47-7.92-7.37-8.66-12.66.71-4.11 2.9-7.75 4.7-11.45 1.38-2.84 3.73-5.05 6.39-6.69 4.36-2.73 8.93-5.73 14.23-5.92z"/><path d="M665.14 13.798c4.8-1.45 9.71-4.01 14.86-2.73 7.51 1.4 16.2 4.72 18.99 12.54 3.98 11.22 2.54 23.35.99 34.88-1.2 11.02.66 22.14-.99 33.13 8.08.36 16.07 1.65 24.16 1.98 8.92.45 17.02 5.28 26.03 5.1 5.96.09 12.8-.25 17.47 4.16 5.48 6.05 5.8 15.45 2.62 22.68-3.14 6.58-9.31 10.94-15 15.17-6.46 4.09-13.3 7.71-20.54 10.21-7.7 2.8-14.4-3.35-21.73-4.56-5.99-.99-11.32-4-15.93-7.85-.76 13.52-7.73 25.49-13.85 37.21-3.04 5.01-5.51 10.33-8.26 15.5 2.96 1.72 5.91 3.52 8.53 5.75 5.98 5.34 12.48 10.42 16.51 17.52 3.24 5.03 3.61 11.2 3.65 17.03.08 7.11-2.61 13.87-3.03 20.94a31.68 31.68 0 0 1-2.39 10.24c-3.3 7.97-4.29 16.65-7.18 24.74-1.37 3.74-5.05 5.71-8.11 7.87-3.64 2.34-6.83 5.33-10.6 7.45-3.16 1.69-6.82.65-10.18.36-7.13-.99-15.01-1.17-20.96-5.75-5.76-4.15-8.65-12.47-5-18.9 2.76-3.82 8-4.37 11.34-7.51 5.41-5.57 8.15-13.07 9.63-20.55 1.27-6.6-.97-14.39-6.89-18.08-5.55-3.67-11.66-6.54-18.06-8.34-6.59-1.89-13.37.34-20.05-.15-5.85-.38-12.11.08-17.4-2.89-4.07-2.27-8.38-4.23-11.95-7.27-3.21-2.74-3.64-7.3-3.29-11.24.61-7.37 4.49-15.04 11.53-18.12 8.14-3.57 17.14-5 26-4.59 8.82.37 17.59-.98 26.41-.69-.13-10.19-1.15-20.37-.71-30.56.2-6.98 1.37-13.94.72-20.92-.51-6.69-1.84-13.35-1.5-20.08.5-8.99 1.51-17.95 1.44-26.96-.03-5.67 1.12-11.34.39-17-.82-6.41-1.92-12.78-2.99-19.14-.68-3.71.57-7.36 1.64-10.86 1.18-3.64 2.49-7.53 5.61-10a50.948 50.948 0 0 1 18.07-9.72z"/><path d="M787.54 34.948c7.52-3.22 15.67-.79 23.5-.94 6.03-.08 12.17-.27 18 1.58 5.93 1.97 12.26 1.44 18.34 2.65 11.87 2.44 24.33 3.18 35.35 8.68 8.23 4.09 17.58 4.3 26.24 6.99 10.02 3.54 20.46 6.38 29.44 12.29 6.93 4.61 14.72 8.3 20.18 14.77 6 7.15 12.25 14.33 16.03 22.98 2.84 5.84 3.28 12.41 4.88 18.62.94 4.21 2.21 8.74.56 12.93-1.62 4.89-6.08 7.89-8.94 11.96-5.09 7.02-6.46 15.84-10.76 23.27-1.99 3.37-3 7.16-4.27 10.82-1.57 4.79-4.81 8.78-6.7 13.44-1.9 4.6-3.71 9.24-5.94 13.68 3.95 1.95 8.26 3.91 10.68 7.79 2.9 4.19 3.6 10.2.49 14.47-2.89 4.08-8.06 5.1-12.45 6.76-4.47 1.44-8.49 4.11-13.16 4.9-10.62 1.97-21.49 2.7-31.89 5.74-5.13 1.49-10.44 2.2-15.75 2.59-2.54 6.95-6.75 13.23-8.38 20.5-1.38 5.35-2.56 10.74-3.84 16.11-1.21 5.36-4.67 9.79-7.94 14.05-5.33 6.63-13.59 9.52-21.01 13.05-4.08 2.04-8.82 4.3-13.31 2.04-5.69-1.73-8.2-7.57-9.18-12.95-2.34-8.1.81-16.26 2.51-24.14 2.5-8.06 4.9-16.15 6.66-24.4-5.9.14-11.82.21-17.68-.53-6.34-.9-12.95-.3-19.02-2.64-6.3-2.33-10.78-7.54-15.69-11.86-4.56-4.19-9.49-9.08-9.98-15.62-.15-4.48-.95-9.69 2.26-13.36 3.8-4.79 8.72-9.78 15.25-10 6.86-.22 13.62 1.46 20.19 3.31 17.44 4.63 35.66 3.57 53.37 6.28 10.25.65 20.55.78 30.81.19.89-6.6 4.53-12.27 6.77-18.42 1.99-5.56 7.23-8.96 9.89-14.12 3.02-5.83 5.7-11.87 7.58-18.17 1.9-7.29 6.36-13.9 6.28-21.66.08-7.11 3.27-14.75-.3-21.45-1.83-3.51-3.63-7.06-5.79-10.37-2.12-3.3-5.74-5.05-8.92-7.12-3.79-2.33-7.3-5.4-11.79-6.27-4.59-.99-9.16-2.07-13.69-3.28-7.74-1.8-15.77-2.13-23.38-4.5-6.61-1.85-12.85-5.96-19.99-5.1-6.3.71-12.7 1.24-18.96-.12-7.64-1.66-15.79-1.49-22.92-5.01-5.87-2.78-10.94-6.96-15.6-11.42-4.08-3.7-3.38-9.75-2.76-14.66 1.04-7.49 8.41-11.66 14.73-14.33zM141.97 52.218c8.01-3.12 16.74-2.15 25.13-2.84 9.75-.71 19.3 1.63 28.92 2.79 8.19.59 15.98 3.35 23.86 5.42 6.05 2.6 11.87 6.04 16.85 10.38 5.89 6.43 9.8 14.36 13.89 21.99 3.03 5.55 4.62 11.69 6.6 17.65 3.32 9.38 6.18 18.92 7.57 28.79 6.08-1.21 12.08-2.97 18.29-3.45 5.3-.43 10.65-1.06 15.69-2.84 5.33-1.9 10.17-4.89 15.16-7.51-2.34-6.1-2.56-12.65-3.63-19.01-2.26-8.64-3.55-17.71-2.44-26.62 1.98-5.97 4.83-11.92 9.23-16.49 6.93-6.48 17.45-5.03 25.78-2.55 4.34 1.12 6.79 5.09 9.69 8.15 3.02 3.29 7.59 5.13 9.6 9.32 2.42 4.92 3.81 10.27 5.49 15.47 1.41 4.1 1.03 8.46.91 12.71-.18 4.52 1.43 8.81 2.18 13.21.77 4.55.24 9.17.5 13.75.14 4.05 1.36 7.94 1.87 11.94 1.21 6.93-.15 14.12 2.09 20.9 2.93 8.8 1.7 18.31-.17 27.2-2.15 7.36-6.33 14.86-13.52 18.29-5.7 2.75-12.15 4.98-18.53 3.5-6.63-1.19-13.98-2.88-18.37-8.45-4.11-5.92-4.76-13.67-3.06-20.55 1.37-5.69 2.85-11.36 3.37-17.21-4.96 1.71-10.07 2.91-15.16 4.14-4.89 1.15-8.88 4.6-13.79 5.62-5.4.68-10.68-1.04-15.97-1.84-4.78-.73-9.47-2.11-13.66-4.57-2.43 9.71-4.95 19.4-7.23 29.15 2.39.77 5.14 1 7.08 2.76 5.4 5.36 7.88 13.73 5.43 21.06-3.47 10.79-12.03 19.09-21.47 24.91-6.8 4.11-13.38 8.75-20.9 11.49-6.1 2.36-12.82 2.98-18.59 6.2-6.33 3.59-13.44 5.32-20.16 8-5.11 1.95-10.16 4.07-15.35 5.81-5.08 1.73-10.55 2.09-15.52 4.19-4.46 1.85-8.79 4.01-13.31 5.72-5.33 2.27-11.28 3.26-15.97 6.85-5.31 3.94-11.52 7.08-18.25 7.33-6.05.25-11.63-2.48-17.32-4.11-7.53-2.35-15.53-5.06-20.79-11.27-6.4-7.56-12.35-16.12-14.09-26.06-1-6.61 3.32-12.15 5.29-18.1.88-2.02-.37-3.99-1.1-5.83-3.99-8.32-7.58-16.87-12.47-24.73-3.01-4.79-4.99-10.15-8.15-14.85-5.26-7.95-8.26-17.24-14.23-24.75a87.581 87.581 0 0 1-13.15-22.78c-1.3-3.44-3.05-6.81-5.89-9.24-8.68-7.47-11.81-20.12-9.43-31.08 1.21-5.65 6.08-9.22 9.79-13.23 3.95-4.25 7.92-9.08 13.7-10.82 9.75-2.73 21.23.85 27.17 9.21 5.42-1.49 9.51-5.28 13.65-8.83 10.44-6.87 21.15-13.34 31.5-20.35 8.87-4.74 18.26-9.42 28.52-9.8 5.86-.18 11.44-2.07 16.87-4.14m1.1 54.38c-7.36 2.76-14.86 5.13-22.41 7.32-6.4 1.77-12.35 4.74-18.5 7.16-5.2 2.02-9.75 5.3-14.78 7.64-3.5 1.66-7.19 3.33-9.69 6.42-1.64 2-2.99 4.78-1.97 7.37 1.94 5.71 5.93 10.38 8.64 15.71 1.95 3.67 3.24 7.75 5.99 10.93 2.49 2.92 4.88 5.95 6.68 9.35 5.56 9.92 11.88 19.45 16.37 29.94 2.55 6.24 6.48 11.93 7.87 18.61.89 2.33.69 5.99 3.8 6.57 7.32.82 15.04 0 21.78-3.15 6.7-2.92 13.98-4.15 21.25-4.35 6.88-.02 13.21-3.13 20.01-3.75 10.53-1.18 20.79-4.04 30.67-7.81-2.04-6.51-1.46-13.39-.97-20.08.44-6.82 3.38-13.2 3.54-20.06 1.1-8.55-2.83-16.52-3.78-24.87-.83-6.84-2.07-13.84-5.65-19.83-2.51-4.11-4.86-8.36-7.88-12.12-7.74-8.64-19.19-14.23-30.9-13.88-10.08-.23-20.43-.59-30.07 2.88zM1016.55 134.188c5.85-1.66 12.25-1.64 17.89.81 8.3 3.53 16.33 9.92 18.46 19.12 1.77 7.57 1.1 15.68-1.35 23.03-2.18 6.6-9.43 9.81-11.49 16.47-1.53 4.87-4.34 9.18-6.14 13.93-3.11 11.34-7.48 22.36-9.33 34.04-1.15 8.2-4.74 15.75-6.6 23.77-1.52 7.48-3.89 14.74-5.5 22.19-1.43 6.89-5.71 12.65-8 19.21-1.43 3.76-2.4 7.9-5.29 10.87-2.76 2.85-6.11 5.5-10.08 6.32-6.25.83-12.3-2.59-16.01-7.44-5.75-7.34-7.19-16.96-7.71-26-.34-8.36-1.55-16.92.75-25.11 2.4-8.19 2.47-16.85 4.98-25.01 2.64-8.79 2.69-18.09 5.2-26.92 1.61-7.34 3.61-14.58 6.09-21.68 1.84-9.22 4.9-18.13 6.75-27.35 1.88-7.97 5.07-15.99 10.92-21.9 4.54-4.31 10.47-6.79 16.46-8.35z"/><path d="M284.12 229.518c7.55-7.79 21.34-7.43 29.15-.21 5.31 4.68 11.31 9.22 13.94 16.06 2.97 7.64 5.94 15.29 9.09 22.86 2.04-.13 4.13-.07 6.14-.54 3.57-1.93 5.76-5.52 8.3-8.55 6.66-8.65 16.3-14.37 26.08-18.84 7.06-3.58 16.16-1.72 21.75 3.71 3.62 3.33 7.23 7.41 7.81 12.5-.79 6.47-3.04 12.97-7.25 18.04-6.49 8.09-13.02 16.67-22.43 21.53-9.11 4.76-16.95 11.78-26.66 15.37-6.2 2.39-12.22 5.61-18.95 6.15-6.51.67-13.99 1.5-19.42-2.97-4.15-3.37-8.45-6.8-11.31-11.4-3.15-5-6.05-10.18-8.28-15.66-2-4.83-5.05-9.16-6.76-14.12-1.33-3.74-2.36-7.61-4.14-11.18-1.9-3.96-4.64-7.59-5.62-11.94-.81-3.51.97-6.83 2.32-9.96 1.78-3.76 3.26-7.83 6.24-10.85z"/></g></svg>